name X:\Health\ResearchProjects\ASalo\Sprinting 2016\NHaralabidis\Running_implicit_muscleDriven\Running_implicit_muscleDriven\Study2\ExperimentalData\IK_Splined\twoSteps_IK_BSplines_100_meshInts_study2_p02_s_01_lowIK.mot
datacolumns 38
datarows 11
range 0.66700000 0.67937836
endheader
                time	         pelvis_tilt	         pelvis_list	     pelvis_rotation	           pelvis_tx	           pelvis_ty	           pelvis_tz	       hip_flexion_r	     hip_adduction_r	      hip_rotation_r	        knee_angle_r	       ankle_angle_r	    subtalar_angle_r	         mtp_angle_r	       hip_flexion_l	     hip_adduction_l	      hip_rotation_l	        knee_angle_l	       ankle_angle_l	    subtalar_angle_l	         mtp_angle_l	    lumbar_extension	      lumbar_bending	     lumbar_rotation	          arm_flex_r	           arm_add_r	           arm_rot_r	        elbow_flex_r	           pro_sup_r	        wrist_flex_r	         wrist_dev_r	          arm_flex_l	           arm_add_l	           arm_rot_l	        elbow_flex_l	           pro_sup_l	        wrist_flex_l	         wrist_dev_l	
          0.66700000	        -17.91779137	          2.48095947	         12.97502012	          0.36956533	          0.89008707	          0.33593846	         38.60945468	        -10.70275414	        -17.41341925	       -116.62237516	        -10.36931414	        -31.12847851	         -8.03401584	         26.52647144	          5.52981450	          2.61557820	        -48.69142802	         22.11605387	         -8.46800270	          8.20903898	        -27.18332400	         -5.21751432	         -3.21135564	        -37.36400210	         -8.16599083	        -19.90110320	         45.10481379	         77.24797314	        -26.42307084	         32.06992233	          6.21277160	         -9.56400210	         -4.68682180	         76.24933773	         67.04734862	          4.64516638	         19.44352315	
          0.66772564	        -17.93085935	          2.39273985	         13.21110237	          0.37325097	          0.88991246	          0.33568337	         39.10214876	        -10.79434007	        -17.50550588	       -116.90317963	        -10.09945275	        -31.09451109	         -7.96482897	         26.25676843	          5.47200666	          2.80913889	        -48.57121649	         22.09303281	         -8.42954533	          8.35512385	        -27.13383541	         -4.96037813	         -3.30687274	        -37.86375121	         -8.00523119	        -20.22140541	         45.03691435	         77.29716914	        -26.36865782	         32.16541786	          6.70481767	         -9.42592706	         -4.49456730	         76.75079538	         66.84808703	          4.63750827	         19.42993209	
          0.67001836	        -17.96549003	          2.09447148	         13.96795029	          0.38486115	          0.88937166	          0.33487220	         40.66586578	        -11.09567353	        -17.78261840	       -117.72243281	         -9.25312473	        -30.97590587	         -7.73681002	         25.39746032	          5.25463396	          3.46128902	        -48.15467393	         21.99285353	         -8.31382096	          8.82628835	        -26.95936143	         -4.11997153	         -3.65167600	        -39.47502629	         -7.48223777	        -21.28299044	         45.02859901	         77.55222729	        -26.17291915	         32.46528374	          8.22982717	         -9.00000049	         -3.88290816	         78.41288191	         66.15381840	          4.60033373	         19.39423523	
          0.67168000	        -17.98599233	          1.86482258	         14.52401226	          0.39325146	          0.88898722	          0.33428075	         41.80399662	        -11.32231807	        -17.97389900	       -118.26926445	         -8.64411769	        -30.88216017	         -7.56505480	         24.76974144	          5.07312702	          3.96193918	        -47.82743943	         21.90130776	         -8.23394344	          9.17438582	        -26.82041207	         -3.49159151	         -3.93125592	        -40.66506466	         -7.09280711	        -22.08657708	         45.16491103	         77.80583924	        -26.01462024	         32.68132548	          9.31460110	         -8.69844537	         -3.43670314	         79.67109110	         65.60600446	          4.56443386	         19.37336505	
          0.67168000	        -17.98599233	          1.86482258	         14.52401226	          0.39325146	          0.88898722	          0.33428075	         41.80399662	        -11.32231807	        -17.97389900	       -118.26926445	         -8.64411769	        -30.88216017	         -7.56505480	         24.76974144	          5.07312702	          3.96193918	        -47.82743943	         21.90130776	         -8.23394344	          9.17438582	        -26.82041207	         -3.49159151	         -3.93125592	        -40.66506466	         -7.09280711	        -22.08657708	         45.16491103	         77.80583924	        -26.01462024	         32.68132548	          9.31460110	         -8.69844537	         -3.43670314	         79.67109110	         65.60600446	          4.56443386	         19.37336505	
          0.67240564	        -17.99494570	          1.76453475	         14.76684490	          0.39691551	          0.88881933	          0.33402246	         42.30101914	        -11.42129390	        -18.05743137	       -118.50806621	         -8.37816390	        -30.84122135	         -7.49004918	         24.49561618	          4.99386282	          4.18057344	        -47.68453590	         21.86132965	         -8.19906087	          9.32640023	        -26.75973279	         -3.21717752	         -4.05334866	        -41.18475523	         -6.92274248	        -22.43750392	         45.22443858	         77.91659176	        -25.94549100	         32.77567105	          9.78832261	         -8.56675604	         -3.24184510	         80.22055191	         65.36677373	          4.54875636	         19.36425103	
          0.67469836	        -18.02403344	          1.42512421	         15.53783651	          0.40845822	          0.88829172	          0.33320586	         43.88726195	        -11.74017228	        -18.29787547	       -119.19164566	         -7.54166470	        -30.69532292	         -7.25194396	         23.62775282	          4.70717267	          4.91441237	        -47.18873855	         21.71207656	         -8.11217671	          9.80596057	        -26.53781639	         -2.32672150	         -4.47690193	        -42.84963466	         -6.38919977	        -23.53221694	         45.57565878	         78.36344651	        -25.69786893	         33.07046235	         11.26326286	         -8.17495737	         -2.60765010	         82.01959636	         64.55576032	          4.48147138	         19.34288296	
          0.67636000	        -18.04564754	          1.16409874	         16.09910369	          0.41680091	          0.88791122	          0.33261370	         45.04746107	        -11.97538433	        -18.45646807	       -119.63973917	         -6.93795560	        -30.57854303	         -7.07863248	         22.99761278	          4.47521192	          5.47497623	        -46.79986908	         21.58860205	         -8.06477343	         10.15302368	        -26.35683848	         -1.66574292	         -4.80908259	        -44.07150539	         -6.00504742	        -24.31621573	         45.93904518	         78.75196623	        -25.49892331	         33.28190766	         12.31765621	         -7.90720623	         -2.13566234	         83.36545838	         63.93119311	          4.42086426	         19.33235269	
          0.67636000	        -18.04564754	          1.16409874	         16.09910369	          0.41680091	          0.88791122	          0.33261370	         45.04746107	        -11.97538433	        -18.45646807	       -119.63973917	         -6.93795560	        -30.57854303	         -7.07863248	         22.99761278	          4.47521192	          5.47497623	        -46.79986908	         21.58860205	         -8.06477343	         10.15302368	        -26.35683848	         -1.66574292	         -4.80908259	        -44.07150539	         -6.00504742	        -24.31621573	         45.93904518	         78.75196623	        -25.49892331	         33.28190766	         12.31765621	         -7.90720623	         -2.13566234	         83.36545838	         63.93119311	          4.42086426	         19.33235269	
          0.67708564	        -18.05508643	          1.05010873	         16.34420945	          0.42044417	          0.88774506	          0.33235510	         45.55412081	        -12.07810160	        -18.52572557	       -119.83542191	         -6.67431543	        -30.52754517	         -7.00294723	         22.72243020	          4.37391450	          5.71977485	        -46.63004951	         21.53468065	         -8.04407238	         10.30458637	        -26.27780531	         -1.37709312	         -4.95414611	        -44.60509717	         -5.83728783	        -24.65858854	         46.09773627	         78.92163306	        -25.41204363	         33.37424598	         12.77811051	         -7.79027913	         -1.92954496	         83.95319724	         63.65844419	          4.39439708	         19.32775412	
          0.67937836	        -18.09232652	          0.67097140	         17.10687790	          0.43194229	          0.88721728	          0.33155074	         47.17723675	        -12.39990119	        -18.70571130	       -120.38060565	         -5.85074569	        -30.35035228	         -6.77005575	         21.85321093	          4.01870787	          6.52387793	        -46.04248119	         21.33635123	         -8.01435443	         10.77455216	        -25.99084584	         -0.45597198	         -5.43516345	        -46.30376871	         -5.32000423	        -25.68946198	         46.72052633	         79.51779481	        -25.11217960	         33.65839902	         14.22261161	         -7.45887779	         -1.23996758	         85.85348446	         62.76063530	          4.29261836	         19.31969138	
